# xmcd
#
# Track frame offsets:
#	150
#	22141
#	45231
#	63881
#	78448
#	100742
#	118325
#	138251
#	157023
#	169689
#
# Disc length: 2508 seconds
# Revision: 0
# Processed by: cddbd v1.5.2PL0 Copyright (c) Steve Scherf et al.
# Submitted via: dBpowerAMP V12.0
#
DISCID=7c09ca0a
DTITLE=Doc White - It'll Look Back
DYEAR=2013
DGENRE=Blues Acoustic
TTITLE0=Jitterbug Swing
TTITLE1=The Ballad Of Amazing Grace And Sideshow Dan
TTITLE2=Mississippi Blues
TTITLE3=Gilmore Street Rag
TTITLE4=The Lord Ain't Helping
TTITLE5=It'll Look Back
TTITLE6=Children Of Zion
TTITLE7=Hard Time Killing Floor
TTITLE8=Drop Down Mama
TTITLE9=One More River
EXTD=
EXTT0=
EXTT1=
EXTT2=
EXTT3=
EXTT4=
EXTT5=
EXTT6=
EXTT7=
EXTT8=
EXTT9=
PLAYORDER=
